<?xml version="1.0" standalone="no"?>
<!DOCTYPE svg PUBLIC "-//W3C//DTD SVG 20010904//EN"
 "http://www.w3.org/TR/2001/REC-SVG-20010904/DTD/svg10.dtd">
<svg version="1.0" xmlns="http://www.w3.org/2000/svg"
 width="512.000000pt" height="512.000000pt" viewBox="0 0 512.000000 512.000000"
 preserveAspectRatio="xMidYMid meet">

<g transform="translate(0.000000,512.000000) scale(0.100000,-0.100000)"
fill="#000000" stroke="none">
<path d="M2755 3470 l-1309 -1309 -66 -413 c-58 -359 -64 -413 -51 -416 9 -1
196 27 416 63 l400 65 1317 1314 1317 1315 -345 343 c-190 189 -350 344 -357
346 -7 1 -601 -587 -1322 -1308z m1545 828 l202 -208 -119 -125 c-65 -69 -122
-124 -128 -123 -5 0 -102 95 -215 210 l-205 208 125 125 c69 69 128 124 131
123 4 -2 98 -96 209 -210z m-1155 -1572 l-980 -974 -213 211 -212 212 977 977
978 978 215 -215 215 -215 -980 -974z m-1138 -1092 c-6 -7 -458 -76 -463 -71
-5 5 60 409 72 446 3 10 72 -52 199 -179 107 -107 193 -195 192 -196z"/>
<path d="M350 2230 l0 -1900 1900 0 1900 0 0 1065 0 1065 -95 0 -95 0 -2 -967
-3 -968 -1707 -3 -1708 -2 0 1710 0 1710 853 2 852 3 3 93 3 92 -951 0 -950 0
0 -1900z"/>
</g>
</svg>
