<?xml version="1.0" standalone="no"?>
<!DOCTYPE svg PUBLIC "-//W3C//DTD SVG 20010904//EN"
 "http://www.w3.org/TR/2001/REC-SVG-20010904/DTD/svg10.dtd">
<svg version="1.0" xmlns="http://www.w3.org/2000/svg"
 width="512.000000pt" height="512.000000pt" viewBox="0 0 512.000000 512.000000"
 preserveAspectRatio="xMidYMid meet">

<g transform="translate(0.000000,512.000000) scale(0.100000,-0.100000)"
fill="#000000" stroke="none">
<path d="M904 4666 c-108 -35 -180 -81 -275 -175 -94 -95 -145 -175 -178 -285
-21 -68 -21 -74 -21 -1646 0 -1572 0 -1578 21 -1646 33 -110 84 -190 178 -285
95 -94 175 -145 285 -178 68 -21 74 -21 1646 -21 1572 0 1578 0 1646 21 110
33 190 84 285 178 94 95 145 175 178 285 21 68 21 74 21 1646 0 1572 0 1578
-21 1646 -33 110 -84 190 -178 285 -95 94 -175 145 -285 178 -68 21 -74 21
-1650 21 l-1581 -1 -71 -23z m3272 -425 c24 -13 52 -41 65 -65 l24 -41 0
-1575 0 -1575 -24 -41 c-13 -24 -41 -52 -65 -65 l-41 -24 -1575 0 -1575 0 -41
24 c-24 13 -52 41 -65 65 l-24 41 0 1575 0 1575 23 41 c26 45 68 74 122 85 19
4 733 6 1585 5 l1550 -1 41 -24z"/>
<path d="M2509 3621 c-63 -21 -110 -57 -137 -106 -15 -26 -18 -80 -22 -385
l-5 -355 -355 -5 c-305 -4 -359 -7 -385 -22 -145 -80 -145 -296 0 -376 26 -15
80 -18 385 -22 l355 -5 5 -355 c5 -383 6 -386 62 -436 104 -95 270 -70 336 51
15 26 18 80 22 385 l5 355 355 5 c383 5 386 6 436 62 95 104 70 270 -51 336
-26 15 -80 18 -385 22 l-355 5 -5 355 c-5 383 -6 386 -62 436 -52 48 -143 73
-199 55z"/>
</g>
</svg>
